<?xml version="1.0" encoding="UTF-8" standalone="no"?>
<svg width="34px" height="37px" viewBox="0 0 34 37" version="1.1" xmlns="http://www.w3.org/2000/svg" xmlns:xlink="http://www.w3.org/1999/xlink" xmlns:sketch="http://www.bohemiancoding.com/sketch/ns">
    <title>thumb22</title>
    <description>Created with Sketch (http://www.bohemiancoding.com/sketch)</description>
    <defs></defs>
    <g id="Page-1" stroke="none" stroke-width="1" fill="none" fill-rule="evenodd" sketch:type="MSPage">
        <g id="thumb22" sketch:type="MSLayerGroup" transform="translate(1.000000, 0.000000)" fill="#FFFFFF">
            <path d="M30.854,17.724 C29.55,16.469 27.708,16.325 26.435,16.325 C25.781,16.325 25.148,16.37 24.551,16.414 C24.505,16.414 24.415,16.388 24.337,16.361 C24.212,16.323 24.062,16.277 23.892,16.268 C23.286,16.137 22.814,16.01 22.372,15.661 C21.47,14.858 20.679,13.857 19.913,12.89 L19.363,12.202 C18.361,10.991 17.133,9.385 16.52,7.658 C16.197,6.795 16.065,5.881 16.111,4.776 C16.117,4.565 16.131,4.362 16.141,4.164 C16.187,3.361 16.231,2.603 15.969,1.823 C15.599,0.664 14.687,0 13.466,0 C12.644,0 11.781,0.312 11.125,0.833 C9.48,1.977 8.423,4.145 8.293,6.639 C8.226,8.037 8.652,9.239 9.064,10.4 C9.423,11.413 9.763,12.367 9.759,13.4 C9.755,14.966 8.402,15.402 6.488,15.846 C6.279,15.895 6.072,15.943 5.91,15.985 C5.691,16.025 5.468,16.062 5.242,16.1 C3.806,16.338 2.18,16.611 1.002,17.733 C0.113,18.616 -0.31,20.073 -0.075,21.446 C0.094,22.436 0.582,23.251 1.287,23.735 C0.843,25.419 1.668,27.381 3.268,28.428 C3.115,29.19 3.258,30.051 3.682,30.856 C4.158,31.756 4.911,32.46 5.753,32.795 C5.755,34.338 6.808,35.682 8.466,36.15 C8.927,36.244 9.427,36.289 9.995,36.289 C10.835,36.289 11.675,36.191 12.487,36.1 C12.759,36.069 13.028,36.039 13.341,36.004 C13.82,35.906 14.32,35.844 14.823,35.779 C15.86,35.646 16.929,35.509 17.898,35.091 C18.683,34.741 19.377,34.236 20.044,33.749 C20.262,33.591 20.476,33.435 20.696,33.28 C20.912,33.126 21.131,32.923 21.353,32.712 C21.739,32.349 22.136,31.974 22.521,31.9 C22.864,31.834 23.19,31.798 23.506,31.765 C23.86,31.726 24.201,31.689 24.537,31.619 L24.703,31.619 C25.057,31.619 25.446,31.64 25.85,31.666 C26.309,31.693 26.787,31.723 27.26,31.723 C28.425,31.723 29.885,31.575 30.826,30.416 C32.213,28.77 32.412,26.262 32.422,23.799 L32.422,23.692 C32.445,21.885 32.46,19.152 30.854,17.724 L30.854,17.724 Z M25.577,27.617 C25.217,28.92 24.515,29.457 23.029,29.594 C22.568,29.594 22.001,29.594 21.467,29.922 C20.901,30.078 20.446,30.508 20.039,30.889 C19.881,31.039 19.725,31.188 19.58,31.301 C19.383,31.444 19.183,31.596 18.977,31.75 C18.362,32.217 17.723,32.699 17.153,32.979 C16.806,33.067 16.415,33.153 16.021,33.243 L15.261,33.415 C13.668,33.702 12.017,33.853 10.463,33.991 C9.941,33.991 9.401,33.991 8.859,33.846 C8.553,33.807 8.328,33.668 8.186,33.432 C7.99,33.108 7.972,32.625 8.13,32.203 C8.258,31.912 8.234,31.596 8.066,31.338 C7.81,30.942 7.295,30.77 6.9,30.77 L6.848,30.77 L6.797,30.78 C6.75,30.792 6.705,30.796 6.66,30.796 C6.337,30.796 6.005,30.526 5.771,30.079 C5.477,29.511 5.437,28.823 5.65,28.518 C5.896,28.229 5.936,27.809 5.757,27.422 C5.599,27.082 5.312,26.86 4.991,26.818 C4.237,26.562 3.749,26.089 3.54,25.423 C3.386,24.861 3.427,24.218 3.686,23.909 C3.933,23.499 3.99,23.02 3.839,22.638 C3.714,22.324 3.456,22.095 3.069,21.986 C2.351,21.855 2.136,21.273 2.081,20.8 C1.964,19.933 2.629,19.273 3.255,18.96 C4.214,18.423 5.388,18.231 6.525,18.045 C7.134,17.945 7.763,17.844 8.359,17.69 C10.396,17.161 11.859,15.568 12,13.726 C12.099,12.372 11.671,11.127 11.259,9.928 C10.908,8.91 10.578,7.95 10.55,6.938 C10.521,5.961 10.804,4.883 11.347,3.853 C11.867,3.041 12.742,2.167 13.437,2.167 C13.472,2.167 13.508,2.17 13.537,2.175 C13.966,2.237 13.953,3.052 13.906,3.811 L13.895,3.999 C13.832,5.246 13.805,6.296 14.088,7.512 C14.487,9.162 15.426,10.501 16.331,11.796 C16.528,12.078 16.727,12.361 16.927,12.656 C17.779,13.883 18.863,15.218 20.042,16.498 C20.264,16.767 20.509,17.064 20.806,17.269 C20.886,17.415 20.993,17.491 21.096,17.528 C21.829,18.091 22.613,18.418 23.608,18.58 C24.329,18.717 24.949,18.831 25.262,19.358 C25.889,20.469 25.908,21.999 25.921,23.221 L25.924,23.512 C25.945,24.811 25.933,26.307 25.577,27.617 L25.577,27.617 Z M30.177,23.316 L30.175,23.796 C30.184,25.681 30.066,27.605 29.146,28.939 C28.837,29.412 28.219,29.447 27.378,29.447 L27.288,29.447 C27.763,28.482 27.947,27.359 28.061,26.34 C28.258,24.485 28.238,22.67 27.999,20.945 C27.896,20.189 27.738,19.363 27.378,18.63 C28.06,18.705 28.76,18.893 29.294,19.348 C30.206,20.107 30.188,22.039 30.177,23.316 L30.177,23.316 Z" id="Shape" sketch:type="MSShapeGroup"></path>
        </g>
    </g>
</svg>